<?xml version="1.0" standalone="no"?>
<!DOCTYPE svg PUBLIC "-//W3C//DTD SVG 20010904//EN"
 "http://www.w3.org/TR/2001/REC-SVG-20010904/DTD/svg10.dtd">
<svg version="1.0" xmlns="http://www.w3.org/2000/svg"
 width="938.000000pt" height="304.000000pt" viewBox="0 0 938.000000 304.000000"
 preserveAspectRatio="xMidYMid meet">

<g transform="translate(0.000000,304.000000) scale(0.100000,-0.100000)"
fill="#000000" stroke="none">
<path d="M2732 2248 c-9 -9 -12 -177 -12 -694 0 -607 2 -684 16 -698 21 -21
57 -20 77 2 15 16 17 53 17 308 0 345 4 368 81 449 59 63 129 96 215 103 111
9 189 -34 233 -127 l26 -56 3 -330 c3 -285 5 -332 19 -347 21 -24 58 -23 83 2
19 19 20 33 20 311 0 315 -9 404 -47 485 -53 113 -135 165 -269 172 -125 7
-217 -30 -316 -126 l-48 -46 0 290 c0 212 -3 293 -12 302 -7 7 -26 12 -43 12
-17 0 -36 -5 -43 -12z"/>
<path d="M4976 2244 c-14 -14 -16 -90 -16 -694 l0 -679 22 -15 c30 -21 54 -20
78 4 20 20 20 30 18 701 -3 742 0 699 -60 699 -15 0 -34 -7 -42 -16z"/>
<path d="M975 2200 c-151 -17 -270 -95 -324 -210 -36 -76 -37 -201 -3 -275 50
-109 142 -172 364 -246 275 -93 355 -164 346 -305 -5 -88 -41 -137 -131 -183
-56 -29 -80 -35 -150 -39 -147 -8 -267 34 -371 129 -58 53 -92 62 -119 31 -31
-35 -21 -66 39 -121 104 -95 217 -144 361 -156 314 -26 538 162 495 415 -16
91 -38 134 -100 192 -63 59 -95 75 -277 138 -255 88 -333 141 -354 241 -26
121 39 217 177 259 145 45 300 12 417 -90 50 -44 83 -50 108 -22 39 42 8 100
-87 163 -99 66 -248 96 -391 79z"/>
<path d="M7646 2162 c-30 -59 -516 -1256 -516 -1272 0 -24 32 -50 63 -50 34 0
43 14 112 190 32 80 64 157 71 173 l15 27 307 0 308 0 69 -172 c39 -94 78
-182 88 -195 29 -36 82 -29 98 14 7 20 -3 55 -57 186 -37 89 -90 221 -119 292
-29 72 -74 182 -100 245 -26 63 -67 165 -92 225 -25 61 -65 160 -90 220 -52
129 -65 145 -109 145 -27 0 -37 -6 -48 -28z m54 -185 c0 -1 56 -139 125 -307
69 -168 125 -308 125 -312 0 -10 -510 -10 -510 0 -1 16 245 622 253 622 4 0 7
-1 7 -3z"/>
<path d="M8522 2174 l-22 -15 0 -643 c0 -610 1 -644 18 -659 23 -21 51 -22 80
-1 l22 15 0 644 0 644 -22 15 c-12 9 -29 16 -38 16 -9 0 -26 -7 -38 -16z"/>
<path d="M2067 1840 c-90 -12 -194 -68 -264 -143 -69 -74 -106 -146 -127 -251
-20 -93 -20 -124 -1 -222 53 -276 273 -433 553 -395 166 22 299 113 263 179
-20 37 -49 37 -104 -1 -86 -60 -121 -70 -227 -70 -117 1 -185 27 -258 100
-197 197 -140 547 106 665 59 27 75 31 156 31 110 0 163 -15 215 -60 62 -52
115 -39 113 28 -1 38 -24 65 -82 94 -82 41 -230 60 -343 45z"/>
<path d="M4160 1843 c-143 -16 -291 -121 -359 -256 -143 -283 -17 -641 259
-735 276 -95 562 56 635 333 19 76 19 224 0 300 -49 187 -209 332 -393 356
-68 9 -80 9 -142 2z m190 -130 c153 -54 245 -198 244 -383 0 -170 -82 -304
-223 -368 -80 -35 -202 -35 -282 1 -180 80 -271 298 -209 499 66 216 267 323
470 251z"/>
<path d="M5697 1840 c-217 -38 -369 -244 -369 -502 0 -107 14 -173 59 -265 63
-129 183 -222 319 -243 140 -23 263 17 364 119 l60 59 0 -67 c0 -53 4 -72 18
-84 23 -21 52 -22 78 -3 18 14 19 32 22 466 3 501 3 500 -58 500 -45 0 -60
-23 -60 -92 l0 -61 -52 53 c-96 98 -244 144 -381 120z m223 -132 c25 -10 68
-42 97 -70 194 -191 141 -568 -97 -676 -43 -20 -71 -26 -131 -26 -136 0 -242
70 -303 200 -95 201 -27 465 143 558 89 48 199 54 291 14z"/>
<path d="M6939 1840 c-91 -16 -179 -79 -231 -165 -18 -30 -36 -55 -40 -55 -5
0 -8 38 -8 84 0 92 -11 116 -55 116 -56 0 -55 8 -55 -490 0 -498 -1 -490 55
-490 53 0 55 11 55 278 0 136 4 273 9 304 20 120 108 245 206 294 50 24 61 26
134 19 73 -6 80 -5 90 13 38 70 -39 114 -160 92z"/>
</g>
</svg>
